<svg width="50" height="50" viewBox="0 0 50 50" fill="none" xmlns="http://www.w3.org/2000/svg">
<path d="M36.5422 16.3991H36.5726C36.6695 16.3952 36.7647 16.3722 36.8527 16.3315C36.9407 16.2908 37.0198 16.2331 37.0856 16.1618C37.1513 16.0905 37.2023 16.0069 37.2357 15.9159C37.2691 15.8248 37.2842 15.7281 37.2802 15.6312L37.1047 11.359C37.1017 11.2619 37.0794 11.1663 37.039 11.0779C36.9986 10.9895 36.941 10.91 36.8695 10.8441C36.798 10.7783 36.7141 10.7273 36.6227 10.6943C36.5313 10.6613 36.4342 10.6469 36.3371 10.6518C36.2402 10.6557 36.1451 10.6787 36.057 10.7194C35.969 10.7602 35.8899 10.8178 35.8242 10.8891C35.7585 10.9605 35.7074 11.044 35.674 11.1351C35.6406 11.2261 35.6255 11.3229 35.6295 11.4198L35.8046 15.692C35.8127 15.8822 35.8939 16.0619 36.0314 16.1937C36.1688 16.3255 36.3518 16.3991 36.5422 16.3991Z" fill="#92D013"/>
<path d="M12.8694 30.39C10.7711 30.39 8.80737 33.9765 8.80737 35.6035C8.80737 36.2276 8.88332 37.1128 9.54155 37.5867C10.2403 38.093 11.0956 37.8107 11.8508 37.5622C12.1777 37.4343 12.5203 37.351 12.8694 37.3145C13.2185 37.351 13.5611 37.4343 13.888 37.5622C14.3336 37.7355 14.8033 37.8386 15.2804 37.8681C15.608 37.8759 15.9293 37.7771 16.196 37.5867C16.8542 37.1107 16.9302 36.2255 16.9302 35.6035C16.9315 33.9753 14.9677 30.39 12.8694 30.39ZM15.342 36.3863C15.0007 36.3691 14.665 36.2932 14.3496 36.1618C13.8762 35.9774 13.3767 35.8687 12.8694 35.8398C12.3622 35.8687 11.8627 35.9774 11.3892 36.1618C11.0775 36.2882 10.7488 36.3676 10.4137 36.3976C10.4137 36.3976 10.2842 36.2516 10.2842 35.6035C10.2842 34.52 11.8416 31.8668 12.8694 31.8668C13.8973 31.8668 15.4547 34.52 15.4547 35.6035C15.4796 35.8697 15.441 36.138 15.342 36.3863Z" fill="#92D013"/>
<path d="M14.407 30.352C14.5972 30.4296 14.8007 30.4693 15.0061 30.4688C15.3377 30.4655 15.6621 30.372 15.9445 30.1984C16.3942 29.9183 16.7419 29.5012 16.9365 29.0085C17.404 27.8663 17.026 26.6667 16.0749 26.2773C15.8245 26.1807 15.5549 26.1443 15.2879 26.171C15.0208 26.1976 14.7637 26.2867 14.5374 26.4309C14.0921 26.7157 13.7457 27.1311 13.5454 27.6202C13.3451 28.1094 13.3007 28.6485 13.4184 29.1638C13.4786 29.4254 13.5995 29.6692 13.7712 29.8756C13.9429 30.082 14.1607 30.2451 14.407 30.352ZM14.9133 28.1802C14.9874 27.9836 15.121 27.8149 15.2956 27.698C15.3484 27.663 15.4093 27.6421 15.4724 27.6372C15.4868 27.6368 15.5012 27.6394 15.5146 27.6448C15.6277 27.6908 15.7365 28.0402 15.5686 28.4494C15.4942 28.6465 15.3597 28.8152 15.1842 28.9317C15.1581 28.9627 15.1229 28.9846 15.0836 28.9943C15.0443 29.004 15.0029 29.001 14.9654 28.9857C14.9279 28.9704 14.8962 28.9437 14.8749 28.9092C14.8535 28.8748 14.8437 28.8345 14.8467 28.7942C14.8037 28.5877 14.8266 28.373 14.9121 28.1802H14.9133Z" fill="#92D013"/>
<path d="M19.4307 30.0035C18.8399 29.2339 17.6585 29.1836 16.7387 29.8887C15.8188 30.5938 15.5631 31.7512 16.1538 32.5183C16.3096 32.7137 16.5086 32.8704 16.7351 32.9759C16.9616 33.0815 17.2095 33.1331 17.4593 33.1267H17.4842C17.9791 33.1123 18.4562 32.9394 18.8454 32.6335C19.7636 31.9284 20.0214 30.7735 19.4307 30.0035ZM17.9467 31.4617C17.8102 31.5733 17.642 31.6391 17.4661 31.6499C17.3762 31.6499 17.334 31.6292 17.3264 31.6191C17.2889 31.5706 17.3425 31.287 17.6382 31.06C17.7782 30.9457 17.9514 30.8796 18.1319 30.8714C18.1765 30.866 18.2215 30.8771 18.2585 30.9026C18.2952 30.9495 18.242 31.2347 17.9458 31.4617H17.9467Z" fill="#92D013"/>
<path d="M9.79453 30.1985C10.077 30.3721 10.4014 30.4656 10.7329 30.469C10.9384 30.4694 11.1419 30.4297 11.3321 30.3521C11.5783 30.2453 11.7961 30.0822 11.9678 29.8759C12.1395 29.6696 12.2604 29.4259 12.3207 29.1643C12.4385 28.6491 12.3943 28.1101 12.1943 27.621C11.9942 27.1318 11.648 26.7164 11.203 26.4314C10.9765 26.2874 10.7195 26.1985 10.4525 26.1718C10.1854 26.1452 9.91587 26.1815 9.66541 26.2778C8.71435 26.6672 8.33629 27.8668 8.80381 29.009C8.99814 29.5014 9.34543 29.9183 9.79453 30.1985ZM10.2236 27.6449C10.2371 27.6395 10.2514 27.6369 10.2658 27.6373C10.329 27.6422 10.3898 27.6631 10.4426 27.6981C10.6147 27.8187 10.7484 27.9862 10.828 28.1807C10.9076 28.3752 10.9297 28.5885 10.8916 28.7951C10.8946 28.8355 10.8847 28.8758 10.8634 28.9102C10.842 28.9446 10.8103 28.9714 10.7728 28.9867C10.7353 29.0019 10.694 29.0049 10.6547 28.9952C10.6153 28.9855 10.5801 28.9636 10.554 28.9327C10.3785 28.8162 10.2441 28.6475 10.1696 28.4504C10.0017 28.0403 10.1106 27.6909 10.2236 27.6449Z" fill="#92D013"/>
<path d="M9.58503 32.5184C10.1758 31.7492 9.91879 30.5939 9.00064 29.8884C8.08249 29.1829 6.89978 29.2344 6.30906 30.0036C5.71834 30.7728 5.97531 31.9285 6.89346 32.6336C7.28267 32.9395 7.75981 33.1124 8.25465 33.1268H8.27954C8.52935 33.1331 8.77723 33.0815 9.00374 32.9759C9.23024 32.8703 9.42921 32.7137 9.58503 32.5184ZM8.4133 31.6192C8.37087 31.6432 8.32222 31.654 8.27363 31.65C8.09768 31.6392 7.92957 31.5734 7.79304 31.4618C7.49768 31.2348 7.44367 30.9513 7.4808 30.9028C7.51793 30.8542 7.8057 30.8331 8.10148 31.0597C8.39726 31.2863 8.45085 31.5707 8.4133 31.6192Z" fill="#92D013"/>
<path d="M49.9924 49.1547L48.4452 38.6061C48.4198 38.4305 48.332 38.2698 48.1979 38.1536C48.0638 38.0373 47.8923 37.9733 47.7148 37.9732H47.3882C47.2295 37.2822 46.9026 36.641 46.4366 36.1066C45.9706 35.5723 45.3799 35.1612 44.7169 34.9099C44.325 34.415 43.8281 34.0133 43.2621 33.7339C42.696 33.4545 42.075 33.3044 41.4439 33.2943C41.1639 33.0328 40.8508 32.8092 40.5126 32.6293L39.4038 5.59075L40.2299 0.864984C40.2484 0.758897 40.2434 0.650057 40.2154 0.546093C40.1873 0.442129 40.1369 0.345556 40.0676 0.263144C39.9983 0.180732 39.9118 0.114476 39.8142 0.0690192C39.7166 0.0235626 39.6102 5.78179e-06 39.5025 0H10.4981C10.3904 5.78179e-06 10.2841 0.0235626 10.1864 0.0690192C10.0888 0.114476 10.0023 0.180732 9.93303 0.263144C9.86373 0.345556 9.81328 0.442129 9.78524 0.546093C9.75719 0.650057 9.75223 0.758897 9.77069 0.864984L10.6002 5.60763L10.2496 14.1001H2.0044C1.53379 14.0989 1.07787 14.2638 0.716855 14.5657C0.355841 14.8676 0.112875 15.2872 0.0307137 15.7506C-0.0514477 16.2139 0.0324607 16.6915 0.267672 17.0991C0.502884 17.5067 0.874326 17.8183 1.31663 17.979V46.1226C0.87569 46.2844 0.505742 46.5962 0.271626 47.0033C0.0375097 47.4105 -0.0458397 47.8871 0.0361855 48.3495C0.118211 48.812 0.360378 49.2308 0.720245 49.5327C1.08011 49.8345 1.53472 50 2.0044 50.0003H49.262C49.3679 50.0002 49.4725 49.9774 49.5687 49.9334C49.665 49.8893 49.7507 49.8251 49.8199 49.7451C49.8892 49.6651 49.9404 49.5711 49.9702 49.4695C50 49.3679 50.0075 49.2611 49.9924 49.1564V49.1547ZM41.2291 34.7804C41.2807 34.7749 41.3325 34.7722 41.3844 34.7723C41.8309 34.7736 42.2705 34.8822 42.6663 35.089C43.062 35.2958 43.4022 35.5947 43.6582 35.9605C43.7521 36.0945 43.888 36.1933 44.0443 36.2415C44.459 36.3714 44.8381 36.5955 45.1519 36.8962C45.4657 37.1969 45.7057 37.5661 45.8532 37.9749H31.0851C31.2323 37.5659 31.4722 37.1966 31.786 36.8959C32.0999 36.5953 32.4791 36.3714 32.894 36.242C33.0515 36.1934 33.1883 36.0936 33.2826 35.9584C33.5378 35.5927 33.8774 35.2938 34.2726 35.0874C34.6679 34.8809 35.1072 34.7728 35.5531 34.7723C35.6033 34.7722 35.6534 34.7749 35.7033 34.7804C35.819 34.7932 35.9361 34.7786 36.0451 34.7376C36.1541 34.6966 36.2518 34.6304 36.3303 34.5445C36.7224 34.1124 37.2365 33.8095 37.8045 33.6759C38.3726 33.5423 38.9677 33.5843 39.5114 33.7964L39.5181 33.7989C39.9321 33.9607 40.3032 34.2158 40.6025 34.5445C40.6808 34.6307 40.7784 34.697 40.8873 34.738C40.9963 34.779 41.1134 34.7935 41.2291 34.7804ZM38.6236 1.4768L38.0426 4.80171H11.9585L11.3766 1.4768H38.6236ZM12.0504 6.27851H37.954L39.0156 32.1601C38.3804 32.0757 37.7344 32.1338 37.1246 32.3303C36.5147 32.5268 35.9562 32.8567 35.4898 33.296C34.859 33.3057 34.2383 33.4557 33.6727 33.7352C33.1071 34.0146 32.6107 34.4165 32.2198 34.9116C31.5567 35.1627 30.9659 35.5737 30.4999 36.1081C30.034 36.6425 29.7073 37.2838 29.5489 37.9749H29.2197C29.0423 37.975 28.8707 38.039 28.7366 38.1553C28.6025 38.2715 28.5147 38.4321 28.4894 38.6078L27.0345 48.5235H25.6594C25.8013 48.0408 25.752 47.5219 25.5217 47.0746C25.2913 46.6273 24.8976 46.2858 24.4222 46.1209V36.5563C24.6138 36.5677 24.8062 36.5783 25.0003 36.5783C27.4343 36.5783 29.7685 35.6114 31.4896 33.8903C33.2107 32.1692 34.1776 29.835 34.1776 27.401C34.1776 24.967 33.2107 22.6328 31.4896 20.9117C29.7685 19.1906 27.4343 18.2237 25.0003 18.2237C24.8058 18.2237 24.6138 18.2339 24.4222 18.2457V17.979C24.8646 17.8183 25.236 17.5067 25.4712 17.0991C25.7064 16.6915 25.7903 16.2139 25.7082 15.7506C25.626 15.2872 25.383 14.8676 25.022 14.5657C24.661 14.2638 24.2051 14.0989 23.7345 14.1001H11.7277L12.0504 6.27851ZM2.79343 45.9918V18.1085H22.9454V45.9918H2.79343ZM24.4222 19.7225C24.613 19.7085 24.8058 19.7005 25.0003 19.7005C27.0426 19.7005 29.0012 20.5118 30.4454 21.9559C31.8895 23.4001 32.7008 25.3587 32.7008 27.401C32.7008 29.4433 31.8895 31.4019 30.4454 32.846C29.0012 34.2902 27.0426 35.1015 25.0003 35.1015C24.8058 35.1015 24.613 35.0934 24.4222 35.0795V19.7225ZM2.0044 15.5769H23.7345C23.8744 15.5769 24.0085 15.6324 24.1074 15.7314C24.2063 15.8303 24.2619 15.9644 24.2619 16.1043C24.2619 16.2442 24.2063 16.3783 24.1074 16.4773C24.0085 16.5762 23.8744 16.6317 23.7345 16.6317H2.0044C1.86452 16.6317 1.73036 16.5762 1.63145 16.4773C1.53254 16.3783 1.47697 16.2442 1.47697 16.1043C1.47697 15.9644 1.53254 15.8303 1.63145 15.7314C1.73036 15.6324 1.86452 15.5769 2.0044 15.5769ZM1.47697 47.996C1.4772 47.8562 1.53284 47.7222 1.6317 47.6233C1.73056 47.5245 1.86459 47.4688 2.0044 47.4686H23.7345C23.8744 47.4686 24.0085 47.5242 24.1074 47.6231C24.2063 47.722 24.2619 47.8562 24.2619 47.996C24.2619 48.1359 24.2063 48.2701 24.1074 48.369C24.0085 48.4679 23.8744 48.5235 23.7345 48.5235H2.0044C1.86459 48.5232 1.73056 48.4676 1.6317 48.3687C1.53284 48.2699 1.4772 48.1359 1.47697 47.996ZM28.5615 48.5235H28.5269L29.8577 39.4517H47.0768L48.4076 48.5235H28.5615Z" fill="#92D013"/>
<path d="M43.5308 40.788C43.1416 40.7886 42.7594 40.8907 42.4218 41.0841C42.0842 41.2775 41.8028 41.5556 41.6054 41.8909H35.329C35.0378 41.3934 34.5654 41.0279 34.0107 40.8708C33.456 40.7138 32.8621 40.7774 32.3532 41.0483C31.8444 41.3192 31.4601 41.7764 31.2807 42.3243C31.1014 42.8722 31.1409 43.4682 31.391 43.9876C31.1409 44.5069 31.1014 45.103 31.2807 45.6508C31.4601 46.1987 31.8444 46.6559 32.3532 46.9269C32.8621 47.1978 33.456 47.2614 34.0107 47.1043C34.5654 46.9472 35.0378 46.5817 35.329 46.0842H41.6054C41.8975 46.5802 42.3698 46.9443 42.9238 47.1004C43.4778 47.2566 44.0708 47.1928 44.5789 46.9223C45.087 46.6518 45.471 46.1955 45.6508 45.6487C45.8306 45.1019 45.7923 44.5068 45.5438 43.9876C45.7076 43.6472 45.7822 43.2708 45.7609 42.8937C45.7395 42.5166 45.6227 42.1511 45.4216 41.8314C45.2205 41.5117 44.9415 41.2483 44.6108 41.0658C44.2801 40.8833 43.9085 40.7877 43.5308 40.788ZM44.108 44.4656C44.2246 44.6015 44.2884 44.7748 44.2877 44.9538C44.2876 45.1371 44.221 45.314 44.1002 45.4519C43.9795 45.5897 43.8128 45.679 43.6312 45.7032C43.4496 45.7275 43.2653 45.685 43.1127 45.5836C42.96 45.4822 42.8494 45.3289 42.8012 45.1521C42.7588 44.9957 42.666 44.8576 42.5373 44.7592C42.4086 44.6607 42.251 44.6074 42.089 44.6074H34.8455C34.6834 44.6074 34.5259 44.6607 34.3971 44.7592C34.2684 44.8576 34.1757 44.9957 34.1332 45.1521C34.0854 45.3292 33.9749 45.4828 33.8222 45.5844C33.6695 45.6861 33.4851 45.7287 33.3033 45.7044C33.1215 45.6802 32.9547 45.5907 32.834 45.4526C32.7133 45.3145 32.6469 45.1372 32.6472 44.9538C32.6465 44.7745 32.7103 44.601 32.8269 44.4648C32.9401 44.3315 33.0022 44.1624 33.0022 43.9876C33.0022 43.8127 32.9401 43.6436 32.8269 43.5103C32.7103 43.3742 32.6465 43.2006 32.6472 43.0213C32.6469 42.8379 32.7133 42.6606 32.834 42.5226C32.9547 42.3845 33.1215 42.295 33.3033 42.2707C33.4851 42.2464 33.6695 42.2891 33.8222 42.3907C33.9749 42.4923 34.0854 42.6459 34.1332 42.823C34.1757 42.9794 34.2684 43.1175 34.3971 43.2159C34.5259 43.3144 34.6834 43.3677 34.8455 43.3677H42.089C42.251 43.3677 42.4086 43.3144 42.5373 43.2159C42.666 43.1175 42.7588 42.9794 42.8012 42.823C42.8494 42.6462 42.96 42.4929 43.1127 42.3915C43.2653 42.2902 43.4496 42.2477 43.6312 42.2719C43.8128 42.2961 43.9795 42.3854 44.1002 42.5233C44.221 42.6611 44.2876 42.8381 44.2877 43.0213C44.2884 43.2003 44.2246 43.3736 44.108 43.5095C43.9946 43.643 43.9323 43.8124 43.9323 43.9876C43.9323 44.1627 43.9946 44.3321 44.108 44.4656Z" fill="#92D013"/>
</svg>
