<svg width="50" height="50" viewBox="0 0 50 50" fill="none" xmlns="http://www.w3.org/2000/svg">
<path d="M48.6841 36.9933C47.9928 37.9231 47.0984 38.6779 46.0711 39.1987C45.0439 39.7194 43.9116 39.9919 42.7631 39.9948H39.4736C39.3583 39.9948 39.2444 40.0194 39.1391 40.0669C39.0338 40.1145 38.9395 40.1839 38.8624 40.2708L35.954 43.5471L37.1764 44.6623L39.8399 41.6623H42.7631C44.1668 41.6588 45.5507 41.3258 46.8063 40.6894C48.0618 40.0529 49.1549 39.1303 49.9999 37.9938L48.6841 36.9933Z" fill="#92D013"/>
<path d="M32.4785 47.4621C32.2414 47.7298 31.9524 47.9452 31.6297 48.095C31.3069 48.2447 30.9573 48.3255 30.6024 48.3324C29.1499 48.3602 27.961 47.1158 27.961 45.6428V45.5982C27.961 45.2531 28.0281 44.9113 28.1584 44.5924C28.2887 44.2735 28.4796 43.9837 28.7204 43.7397L28.742 43.7178L35.9439 36.4161L34.7808 35.237L27.5784 42.5392C27.2687 42.8531 26.8875 43.0849 26.4685 43.2142C26.0495 43.3435 25.6056 43.3663 25.1759 43.2806C24.8153 43.2114 24.4735 43.0648 24.1735 42.8505C23.8529 42.6247 23.585 42.3304 23.3887 41.9883C23.1925 41.6462 23.0726 41.2646 23.0376 40.8705C23.0026 40.4763 23.0533 40.0791 23.1861 39.707C23.319 39.3348 23.5307 38.9968 23.8064 38.7166L31.0097 31.4136L29.8466 30.2345L22.6049 37.5754C22.13 38.0568 21.486 38.3273 20.8145 38.3273C20.1226 38.3344 19.4537 38.0757 18.9422 37.6032C18.4812 37.1691 18.1867 36.5834 18.1113 35.9501C18.0359 35.3168 18.1842 34.6768 18.5301 34.1439L24.5262 28.2251C24.8447 28.2897 25.1686 28.3222 25.4934 28.3222H34.9926L36.409 29.9376C38.033 31.7887 40.025 33.2703 42.254 34.2852C44.483 35.3 46.8986 35.8252 49.3421 35.8261V34.1585C47.1309 34.1577 44.9449 33.6825 42.9277 32.7641C40.9105 31.8457 39.1079 30.5049 37.6383 28.8299L35.9765 26.9345C35.8993 26.8466 35.8046 26.7761 35.6987 26.7279C35.5928 26.6797 35.478 26.6547 35.3618 26.6547H25.5589C23.7189 26.6547 22.1731 25.1278 22.2045 23.2622C22.2203 22.3881 22.5737 21.5551 23.1886 20.9423C23.8036 20.3295 24.6311 19.9857 25.4934 19.9847H41.1184V18.3171H34.5624L40.4746 12.4808H49.3421V10.8133H42.1638L45.5766 7.44442C47.2223 5.81973 47.2798 2.97902 45.6751 1.29712C45.0829 0.696264 44.3327 0.280927 43.514 0.10072C42.6953 -0.0794874 41.8428 -0.0169467 41.0582 0.280871C39.324 0.971744 38.2518 2.69314 36.8647 3.95983L37.9056 5.23756C38.6972 4.64674 39.281 3.82101 39.9579 3.09824C40.6347 2.37548 41.4812 1.71973 42.4631 1.64823C42.8892 1.62433 43.3146 1.70699 43.7018 1.88895C44.089 2.0709 44.4261 2.34657 44.6835 2.69168C45.0703 3.21647 45.2575 3.86506 45.2107 4.51846C45.164 5.17187 44.8865 5.78629 44.4291 6.24901L32.2049 18.3171H25.4934C25.3239 18.3171 25.1544 18.3259 24.9857 18.3435L36.6721 6.49529L35.509 5.31614L30.087 10.8133H23.9659C22.7774 10.81 21.6002 11.0457 20.5022 11.5067C19.4042 11.9678 18.4073 12.645 17.5692 13.4993L15.9271 15.1642L17.09 16.3434L18.7317 14.6789C20.1199 13.2715 22.0027 12.4808 23.9659 12.4808H28.4422L22.4448 18.5613L13.4421 27.6887C13.1873 27.9523 12.8834 28.1619 12.548 28.3054C12.2125 28.4489 11.8523 28.5233 11.4883 28.5243C11.0809 28.5212 10.6796 28.4233 10.3155 28.238C9.95136 28.0528 9.63409 27.7852 9.38816 27.4559C9.10841 27.086 8.92978 26.6479 8.87027 26.1857C8.81434 25.7727 8.85361 25.3522 8.98501 24.9572C9.11641 24.5622 9.33636 24.2034 9.62757 23.9092L15.625 17.8285L14.4624 16.6496L8.46453 22.7301C7.8921 23.3102 7.49229 24.0419 7.31087 24.8415C7.12944 25.6412 7.17372 26.4764 7.43864 27.2518C7.70356 28.0271 8.17842 28.7111 8.80888 29.2256C9.43933 29.7401 10.1999 30.0643 11.0036 30.161L0.240851 41.0728C0.164488 41.1502 0.103915 41.2421 0.0625892 41.3433C0.0212638 41.4444 -3.93457e-06 41.5529 5.45976e-10 41.6624V49.1662C-8.99155e-07 49.3869 0.0863167 49.5986 0.24003 49.7549C0.393743 49.9112 0.602308 49.9993 0.820004 49.9999C2.75428 50.0056 4.67044 49.6222 6.45754 48.8718C8.24464 48.1215 9.86717 47.0192 11.2312 45.6288L15.3841 41.4183C15.4605 41.3408 15.5211 41.2489 15.5624 41.1477C15.6038 41.0466 15.625 40.9381 15.625 40.8286V37.0117L16.4813 36.1663C16.6114 37.2234 17.1179 38.1959 17.9056 38.901C18.6933 39.606 19.7079 39.995 20.7586 39.9948H21.4279C21.3383 40.6156 21.3815 41.2486 21.5547 41.8509C21.7279 42.4532 22.0269 43.0107 22.4316 43.4853C22.8363 43.9599 23.337 44.3407 23.8997 44.6016C24.4625 44.8625 25.074 44.9975 25.6928 44.9974C25.9179 44.9972 26.1425 44.9791 26.3647 44.9433C26.3322 45.1599 26.3158 45.3786 26.3158 45.5977V45.6227C26.3158 47.9793 28.1542 49.9592 30.4783 49.9991C31.0844 50.01 31.6857 49.8887 32.2415 49.6436C32.7974 49.3985 33.2949 49.0352 33.7002 48.5783L36.1951 45.768L34.9726 44.6528L32.4785 47.4621ZM14.2289 36.0625C14.1502 36.1402 14.0877 36.2331 14.045 36.3357C14.0023 36.4382 13.9803 36.5485 13.9803 36.6598V40.4833L10.0682 44.4495C7.8223 46.7396 4.82426 48.1125 1.64474 48.3068V42.0076L20.5852 22.8049C20.491 23.7312 20.6537 24.6656 21.0551 25.5031C21.4565 26.3406 22.0806 27.0479 22.857 27.5452L14.2289 36.0625Z" fill="#92D013"/>
<path d="M37.5882 7.7225L36.4252 8.90161L38.0699 10.5691L39.2329 9.38999L37.5882 7.7225Z" fill="#92D013"/>
<path d="M35.121 10.2236L33.958 11.4027L35.6027 13.0702L36.7657 11.8911L35.121 10.2236Z" fill="#92D013"/>
<path d="M40.0552 5.22116L38.8922 6.40027L40.5369 8.06776L41.6999 6.88864L40.0552 5.22116Z" fill="#92D013"/>
<path d="M32.654 12.7251L31.491 13.9042L33.1357 15.5717L34.2987 14.3925L32.654 12.7251Z" fill="#92D013"/>
<path d="M30.1869 15.2264L29.0239 16.4055L30.6686 18.073L31.8316 16.8939L30.1869 15.2264Z" fill="#92D013"/>
<path d="M19.496 26.065L18.333 27.2441L19.9777 28.9116L21.1407 27.7325L19.496 26.065Z" fill="#92D013"/>
<path d="M17.029 28.5664L15.866 29.7455L17.5107 31.413L18.6737 30.2339L17.029 28.5664Z" fill="#92D013"/>
<path d="M7.17222 41.7998C5.96361 42.8743 4.55503 43.6925 3.02954 44.2063L3.54969 45.7883C5.28249 45.2047 6.8825 44.2752 8.25538 43.0547L12.8772 38.9547L11.7941 37.6997L7.17222 41.7998Z" fill="#92D013"/>
</svg>
