<svg width="38" height="50" viewBox="0 0 38 50" fill="none" xmlns="http://www.w3.org/2000/svg">
<path d="M6.33648 39.1666H7.92058V40.8333C7.92058 41.0543 8.00402 41.2663 8.15256 41.4225C8.3011 41.5788 8.50256 41.6666 8.71263 41.6666H11.8808C12.0909 41.6666 12.2923 41.5788 12.4409 41.4225C12.5894 41.2663 12.6729 41.0543 12.6729 40.8333V39.1666H14.257C14.467 39.1666 14.6685 39.0788 14.817 38.9225C14.9656 38.7663 15.049 38.5543 15.049 38.3333V35C15.049 34.7789 14.9656 34.567 14.817 34.4107C14.6685 34.2544 14.467 34.1666 14.257 34.1666H12.6729V32.5C12.6729 32.2789 12.5894 32.067 12.4409 31.9107C12.2923 31.7544 12.0909 31.6666 11.8808 31.6666H8.71263C8.50256 31.6666 8.3011 31.7544 8.15256 31.9107C8.00402 32.067 7.92058 32.2789 7.92058 32.5V34.1666H6.33648C6.12642 34.1666 5.92496 34.2544 5.77642 34.4107C5.62788 34.567 5.54443 34.7789 5.54443 35V38.3333C5.54443 38.5543 5.62788 38.7663 5.77642 38.9225C5.92496 39.0788 6.12642 39.1666 6.33648 39.1666ZM7.12853 35.8333H8.71263C8.92269 35.8333 9.12415 35.7455 9.27269 35.5892C9.42123 35.4329 9.50467 35.221 9.50467 35V33.3333H11.0888V35C11.0888 35.221 11.1722 35.4329 11.3208 35.5892C11.4693 35.7455 11.6708 35.8333 11.8808 35.8333H13.4649V37.5H11.8808C11.6708 37.5 11.4693 37.5878 11.3208 37.744C11.1722 37.9003 11.0888 38.1123 11.0888 38.3333V40H9.50467V38.3333C9.50467 38.1123 9.42123 37.9003 9.27269 37.744C9.12415 37.5878 8.92269 37.5 8.71263 37.5H7.12853V35.8333Z" fill="#92D013"/>
<path d="M15.0489 21.6667V20H15.841C16.051 20 16.2525 19.9122 16.401 19.756C16.5496 19.5997 16.633 19.3877 16.633 19.1667V15.8334C16.6311 15.1709 16.3802 14.5362 15.935 14.0678C15.4898 13.5994 14.8865 13.3354 14.2569 13.3334H6.33638C5.70677 13.3354 5.10348 13.5994 4.65827 14.0678C4.21307 14.5362 3.96212 15.1709 3.96024 15.8334V19.1667C3.96024 19.3877 4.04369 19.5997 4.19223 19.756C4.34076 19.9122 4.54222 20 4.75229 20H5.54434V21.6667C4.0744 21.6685 2.66515 22.2836 1.62575 23.3772C0.58635 24.4708 0.00167705 25.9535 0 27.5V47.5C0.00188039 48.1625 0.252827 48.7972 0.698034 49.2656C1.14324 49.734 1.74653 49.9981 2.37614 50H18.2171C18.8467 49.9981 19.45 49.734 19.8952 49.2656C20.3404 48.7972 20.5914 48.1625 20.5932 47.5V27.5C20.5916 25.9535 20.0069 24.4708 18.9675 23.3772C17.9281 22.2836 16.5188 21.6685 15.0489 21.6667ZM5.54434 15.8334C5.54434 15.6124 5.62778 15.4004 5.77632 15.2441C5.92486 15.0878 6.12632 15 6.33638 15H14.2569C14.4669 15 14.6684 15.0878 14.8169 15.2441C14.9655 15.4004 15.0489 15.6124 15.0489 15.8334V18.3334H5.54434V15.8334ZM19.0092 47.5C19.0092 47.7211 18.9257 47.933 18.7772 48.0893C18.6286 48.2456 18.4272 48.3334 18.2171 48.3334H2.37614C2.16608 48.3334 1.96462 48.2456 1.81608 48.0893C1.66754 47.933 1.5841 47.7211 1.5841 47.5V45H19.0092V47.5ZM19.0092 43.3334H1.5841V30H19.0092V43.3334ZM19.0092 28.3334H1.5841V27.5C1.5841 26.395 2.00133 25.3352 2.74402 24.5538C3.48671 23.7724 4.49402 23.3334 5.54434 23.3334C5.96408 23.3321 6.36627 23.156 6.66308 22.8438C6.95988 22.5315 7.12718 22.1083 7.12843 21.6667V20H13.4648V21.6667C13.4661 22.1083 13.6334 22.5315 13.9302 22.8438C14.227 23.156 14.6292 23.3321 15.0489 23.3334C16.0992 23.3334 17.1065 23.7724 17.8492 24.5538C18.5919 25.3352 19.0092 26.395 19.0092 27.5V28.3334Z" fill="#92D013"/>
<path d="M35.642 41.6667C36.1992 41.6621 36.7372 41.4517 37.1619 41.0721C37.5866 40.6925 37.871 40.1679 37.9654 39.5901C38.0597 39.0123 37.9581 38.4179 37.6781 37.9109C37.3982 37.404 36.9578 37.0166 36.434 36.8167V12.5C36.4321 11.8376 36.1812 11.2028 35.736 10.7344C35.2908 10.266 34.6875 10.002 34.0579 10H33.2658V9.16667C33.2639 8.50423 33.013 7.8695 32.5678 7.40108C32.1226 6.93267 31.5193 6.66864 30.8897 6.66667V0.833333C30.8897 0.61232 30.8062 0.400358 30.6577 0.244078C30.5091 0.0877973 30.3077 0 30.0976 0C29.8875 0 29.6861 0.0877973 29.5375 0.244078C29.389 0.400358 29.3056 0.61232 29.3056 0.833333V6.66667C28.676 6.66864 28.0727 6.93267 27.6275 7.40108C27.1822 7.8695 26.9313 8.50423 26.9294 9.16667V10H26.1374C25.5078 10.002 24.9045 10.266 24.4593 10.7344C24.0141 11.2028 23.7631 11.8376 23.7612 12.5V36.8167C23.2374 37.0166 22.797 37.404 22.5171 37.9109C22.2372 38.4179 22.1355 39.0123 22.2299 39.5901C22.3242 40.1679 22.6086 40.6925 23.0333 41.0721C23.458 41.4517 23.996 41.6621 24.5533 41.6667H26.9294V45H26.1374C25.5072 45 24.9028 45.2634 24.4572 45.7322C24.0116 46.2011 23.7612 46.837 23.7612 47.5C23.7612 48.163 24.0116 48.7989 24.4572 49.2678C24.9028 49.7366 25.5072 50 26.1374 50H34.0579C34.6881 50 35.2924 49.7366 35.738 49.2678C36.1837 48.7989 36.434 48.163 36.434 47.5C36.434 46.837 36.1837 46.2011 35.738 45.7322C35.2924 45.2634 34.6881 45 34.0579 45H33.2658V41.6667H35.642ZM28.5135 9.16667C28.5135 8.94565 28.597 8.73369 28.7455 8.57741C28.894 8.42113 29.0955 8.33333 29.3056 8.33333H30.8897C31.0997 8.33333 31.3012 8.42113 31.4497 8.57741C31.5983 8.73369 31.6817 8.94565 31.6817 9.16667V10H28.5135V9.16667ZM25.3453 12.5C25.3453 12.279 25.4288 12.067 25.5773 11.9107C25.7258 11.7545 25.9273 11.6667 26.1374 11.6667H34.0579C34.2679 11.6667 34.4694 11.7545 34.6179 11.9107C34.7665 12.067 34.8499 12.279 34.8499 12.5V13.3333H32.4738C32.2637 13.3333 32.0622 13.4211 31.9137 13.5774C31.7652 13.7337 31.6817 13.9457 31.6817 14.1667C31.6817 14.3877 31.7652 14.5996 31.9137 14.7559C32.0622 14.9122 32.2637 15 32.4738 15H34.8499V16.6667H30.8897C30.6796 16.6667 30.4781 16.7545 30.3296 16.9107C30.1811 17.067 30.0976 17.279 30.0976 17.5C30.0976 17.721 30.1811 17.933 30.3296 18.0893C30.4781 18.2455 30.6796 18.3333 30.8897 18.3333H34.8499V20H32.4738C32.2637 20 32.0622 20.0878 31.9137 20.2441C31.7652 20.4004 31.6817 20.6123 31.6817 20.8333C31.6817 21.0543 31.7652 21.2663 31.9137 21.4226C32.0622 21.5789 32.2637 21.6667 32.4738 21.6667H34.8499V23.3333H30.8897C30.6796 23.3333 30.4781 23.4211 30.3296 23.5774C30.1811 23.7337 30.0976 23.9457 30.0976 24.1667C30.0976 24.3877 30.1811 24.5996 30.3296 24.7559C30.4781 24.9122 30.6796 25 30.8897 25H34.8499V26.6667H32.4738C32.2637 26.6667 32.0622 26.7545 31.9137 26.9107C31.7652 27.067 31.6817 27.279 31.6817 27.5C31.6817 27.721 31.7652 27.933 31.9137 28.0893C32.0622 28.2455 32.2637 28.3333 32.4738 28.3333H34.8499V30H30.8897C30.6796 30 30.4781 30.0878 30.3296 30.2441C30.1811 30.4004 30.0976 30.6123 30.0976 30.8333C30.0976 31.0543 30.1811 31.2663 30.3296 31.4226C30.4781 31.5789 30.6796 31.6667 30.8897 31.6667H34.8499V36.6667H25.3453V12.5ZM34.0579 46.6667C34.2679 46.6667 34.4694 46.7545 34.6179 46.9107C34.7665 47.067 34.8499 47.279 34.8499 47.5C34.8499 47.721 34.7665 47.933 34.6179 48.0893C34.4694 48.2455 34.2679 48.3333 34.0579 48.3333H26.1374C25.9273 48.3333 25.7258 48.2455 25.5773 48.0893C25.4288 47.933 25.3453 47.721 25.3453 47.5C25.3453 47.279 25.4288 47.067 25.5773 46.9107C25.7258 46.7545 25.9273 46.6667 26.1374 46.6667H34.0579ZM28.5135 45V41.6667H31.6817V45H28.5135ZM24.5533 40C24.3432 40 24.1417 39.9122 23.9932 39.7559C23.8447 39.5996 23.7612 39.3877 23.7612 39.1667C23.7612 38.9457 23.8447 38.7337 23.9932 38.5774C24.1417 38.4211 24.3432 38.3333 24.5533 38.3333H35.642C35.852 38.3333 36.0535 38.4211 36.202 38.5774C36.3506 38.7337 36.434 38.9457 36.434 39.1667C36.434 39.3877 36.3506 39.5996 36.202 39.7559C36.0535 39.9122 35.852 40 35.642 40H24.5533Z" fill="#92D013"/>
</svg>
